<svg xmlns:dc="http://purl.org/dc/elements/1.1/" xmlns:cc="http://creativecommons.org/ns#" xmlns:rdf="http://www.w3.org/1999/02/22-rdf-syntax-ns#" xmlns:svg="http://www.w3.org/2000/svg" xmlns="http://www.w3.org/2000/svg" xmlns:xlink="http://www.w3.org/1999/xlink" id="svg578589" viewBox="0 0 1024 768" height="768px" width="1024px" version="1.1">
  <metadata id="metadata578595">
    <rdf:rdf>
      <cc:work rdf:about="">
        <dc:format>image/svg+xml</dc:format>
        <dc:type rdf:resource="http://purl.org/dc/dcmitype/StillImage"/>
      </cc:work>
    </rdf:rdf>
  </metadata>
  <defs id="defs578593"/>
  <linearGradient spreadMethod="pad" y2="30%" x2="-10%" y1="120%" x1="30%" id="3d_gradient2-logo-f0457da1-b994-4b8f-84c0-e41759549bcf">
    <stop id="stop578570" stop-opacity="1" stop-color="#ffffff" offset="0%"/>
    <stop id="stop578572" stop-opacity="1" stop-color="#000000" offset="100%"/>
  </linearGradient>
  <linearGradient gradientTransform="rotate(-30)" spreadMethod="pad" y2="30%" x2="-10%" y1="120%" x1="30%" id="3d_gradient3-logo-f0457da1-b994-4b8f-84c0-e41759549bcf">
    <stop id="stop578575" stop-opacity="1" stop-color="#ffffff" offset="0%"/>
    <stop id="stop578577" stop-opacity="1" stop-color="#cccccc" offset="50%"/>
    <stop id="stop578579" stop-opacity="1" stop-color="#000000" offset="100%"/>
  </linearGradient>
  <g id="logo-group">
    <image xlink:href="" id="container" style="display: none;" x="272" y="144" width="480" height="480" transform="translate(0 0)"/>
    <g id="logo-center" transform="translate(0 0)">
      <image xlink:href="" id="icon_container" style="display: none;" x="0" y="0"/>
      <g id="slogan" style="font-style:normal;font-weight:700;font-size:32px;line-height:1;font-family:'Comfortaa Bold Alt1';font-variant-ligatures:none;text-align:center;text-anchor:middle" transform="translate(0 0)">
        <path id="path578597" style="font-style:normal;font-weight:700;font-size:32px;line-height:1;font-family:'Comfortaa Bold Alt1';font-variant-ligatures:none;text-align:center;text-anchor:middle" d="m 461.7775,-3.36 c 0.64,-1.152 0.992,-2.496 0.992,-4 v -15.968 c 0,-0.48 -0.16,-0.864 -0.48,-1.184 -0.32,-0.32 -0.736,-0.48 -1.216,-0.48 -0.48,0 -0.864,0.16 -1.184,0.48 -0.32,0.32 -0.448,0.704 -0.448,1.184 V -7.36 c 0,1.376 -0.416,2.496 -1.248,3.36 -0.832,0.896 -1.856,1.312 -3.136,1.312 -1.28,0 -2.336,-0.416 -3.136,-1.312 -0.832,-0.864 -1.216,-1.984 -1.216,-3.36 0,-0.48 -0.16,-0.864 -0.48,-1.184 -0.32,-0.32 -0.704,-0.48 -1.184,-0.48 -0.48,0 -0.864,0.16 -1.184,0.48 -0.32,0.32 -0.48,0.704 -0.48,1.184 0,1.504 0.32,2.848 0.96,4 0.64,1.152 1.568,2.08 2.72,2.72 1.152,0.64 2.496,0.96 4,0.96 1.472,0 2.816,-0.32 3.968,-0.96 1.152,-0.64 2.08,-1.568 2.752,-2.72 z" stroke-width="0" stroke-linejoin="miter" stroke-miterlimit="2" fill="#6b6668" stroke="#6b6668" transform="translate(1.1368683772161603e-13 390.56408) translate(411.6382 36.50431999999999) scale(1.54) translate(-447.3775 24.992)"/>
        <path id="path578599" style="font-style:normal;font-weight:700;font-size:32px;line-height:1;font-family:'Comfortaa Bold Alt1';font-variant-ligatures:none;text-align:center;text-anchor:middle" d="m 481.328,-16.48 c -1.344,-0.768 -2.848,-1.152 -4.512,-1.152 -1.728,0 -3.232,0.384 -4.576,1.152 -1.344,0.768 -2.4,1.792 -3.136,3.136 -0.768,1.344 -1.12,2.88 -1.12,4.608 0,1.728 0.352,3.232 1.12,4.576 0.736,1.344 1.792,2.4 3.136,3.168 1.344,0.768 2.848,1.12 4.576,1.12 1.696,0 3.2,-0.352 4.544,-1.12 1.344,-0.768 2.368,-1.824 3.136,-3.168 0.736,-1.344 1.12,-2.848 1.12,-4.576 0,-1.728 -0.384,-3.264 -1.152,-4.608 -0.768,-1.344 -1.792,-2.368 -3.136,-3.136 z m -7.456,2.496 c 0.864,-0.512 1.856,-0.768 2.944,-0.768 1.088,0 2.048,0.256 2.912,0.768 0.864,0.512 1.536,1.248 2.016,2.144 0.48,0.928 0.736,1.952 0.736,3.104 0,1.152 -0.256,2.208 -0.736,3.104 -0.48,0.896 -1.152,1.6 -2.016,2.112 -0.864,0.512 -1.824,0.768 -2.912,0.768 -1.088,0 -2.08,-0.256 -2.944,-0.768 -0.864,-0.512 -1.536,-1.216 -2.016,-2.112 -0.512,-0.896 -0.736,-1.952 -0.736,-3.104 0,-1.152 0.224,-2.176 0.736,-3.104 0.48,-0.896 1.152,-1.632 2.016,-2.144 z" stroke-width="0" stroke-linejoin="miter" stroke-miterlimit="2" fill="#6b6668" stroke="#6b6668" transform="translate(1.1368683772161603e-13 390.56408) translate(443.37221 47.838719999999995) scale(1.54) translate(-467.984 17.632)"/>
        <path id="path578601" style="font-style:normal;font-weight:700;font-size:32px;line-height:1;font-family:'Comfortaa Bold Alt1';font-variant-ligatures:none;text-align:center;text-anchor:middle" d="m 506.569,-1.632 v -14.272 c 0,-0.48 -0.16,-0.864 -0.448,-1.184 -0.32,-0.288 -0.704,-0.448 -1.184,-0.448 -0.48,0 -0.864,0.16 -1.184,0.448 -0.32,0.32 -0.448,0.704 -0.448,1.184 v 9.024 c 0,0.8 -0.224,1.472 -0.64,2.08 -0.416,0.64 -0.992,1.12 -1.728,1.472 -0.736,0.384 -1.568,0.544 -2.432,0.544 -1.568,0 -2.784,-0.416 -3.712,-1.312 -0.928,-0.896 -1.376,-2.208 -1.376,-3.936 v -7.872 c 0,-0.448 -0.16,-0.832 -0.48,-1.152 -0.32,-0.32 -0.704,-0.48 -1.152,-0.48 -0.48,0 -0.864,0.16 -1.184,0.48 -0.32,0.32 -0.448,0.704 -0.448,1.152 v 7.872 c 0,1.76 0.32,3.232 0.992,4.448 0.64,1.216 1.568,2.176 2.752,2.784 1.12,0.64 2.336,0.96 3.68,0.992 0.064,0 2.528,0 7.488,0 0.416,0 0.768,-0.16 1.056,-0.448 0.288,-0.288 0.448,-0.64 0.448,-1.088 z" stroke-width="0" stroke-linejoin="miter" stroke-miterlimit="2" fill="#6b6668" stroke="#6b6668" transform="translate(1.1368683772161603e-13 390.56408) translate(477.51247000000006 47.98656) scale(1.54) translate(-490.153 17.536)"/>
        <path id="path578603" style="font-style:normal;font-weight:700;font-size:32px;line-height:1;font-family:'Comfortaa Bold Alt1';font-variant-ligatures:none;text-align:center;text-anchor:middle" d="m 523.5495,-17.184 c -0.64,-0.32 -1.536,-0.512 -2.656,-0.512 -1.088,0 -2.08,0.224 -3.008,0.64 -0.96,0.448 -1.728,1.024 -2.368,1.76 v -0.608 c 0,-1.056 -0.544,-1.6 -1.6,-1.6 -0.512,0 -0.928,0.16 -1.184,0.416 -0.288,0.288 -0.416,0.672 -0.416,1.184 V -1.6 c 0,0.544 0.128,0.96 0.416,1.216 0.256,0.256 0.672,0.384 1.184,0.384 0.512,0 0.928,-0.128 1.184,-0.416 0.256,-0.256 0.416,-0.672 0.416,-1.184 v -9.344 c 0,-1.184 0.448,-2.144 1.408,-2.848 0.928,-0.704 2.176,-1.056 3.712,-1.056 0.512,0 1.216,0.096 2.08,0.224 0.192,0.064 0.352,0.064 0.48,0.064 0.64,0 1.088,-0.32 1.28,-1.024 0,-0.064 0.032,-0.16 0.032,-0.32 0,-0.512 -0.32,-0.928 -0.96,-1.28 z" stroke-width="0" stroke-linejoin="miter" stroke-miterlimit="2" fill="#6b6668" stroke="#6b6668" transform="translate(1.1368683772161603e-13 390.56408) translate(511.6458 47.74016) scale(1.54) translate(-512.3175 17.696)"/>
        <path id="path578605" style="font-style:normal;font-weight:700;font-size:32px;line-height:1;font-family:'Comfortaa Bold Alt1';font-variant-ligatures:none;text-align:center;text-anchor:middle" d="m 543.304,-13.888 c -0.672,-1.216 -1.6,-2.176 -2.752,-2.816 -1.12,-0.576 -2.336,-0.896 -3.68,-0.928 -0.032,0 -0.096,-0.032 -0.096,-0.032 h -7.36 c -0.448,0 -0.8,0.16 -1.088,0.448 -0.32,0.32 -0.448,0.672 -0.448,1.088 0,0.032 0,0.096 0,0.128 0,0.064 0,0.096 0,0.128 V -1.6 c 0,0.48 0.128,0.864 0.448,1.184 0.32,0.32 0.704,0.448 1.184,0.448 0.48,0 0.864,-0.128 1.184,-0.448 0.288,-0.32 0.448,-0.704 0.448,-1.184 v -9.024 c 0,-0.768 0.192,-1.44 0.608,-2.08 0.416,-0.608 0.992,-1.088 1.728,-1.472 0.736,-0.352 1.568,-0.544 2.464,-0.544 1.536,0 2.752,0.448 3.68,1.344 0.928,0.896 1.408,2.208 1.408,3.904 V -1.6 c 0,0.48 0.128,0.864 0.448,1.184 0.32,0.32 0.704,0.448 1.184,0.448 0.448,0 0.832,-0.128 1.152,-0.448 0.32,-0.32 0.48,-0.704 0.48,-1.184 v -7.872 c 0,-1.728 -0.352,-3.2 -0.992,-4.416 z" stroke-width="0" stroke-linejoin="miter" stroke-miterlimit="2" fill="#6b6668" stroke="#6b6668" transform="translate(1.1368683772161603e-13 390.56408) translate(535.61205 47.78944) scale(1.54) translate(-527.88 17.664)"/>
        <path id="path578607" style="font-style:normal;font-weight:700;font-size:32px;line-height:1;font-family:'Comfortaa Bold Alt1';font-variant-ligatures:none;text-align:center;text-anchor:middle" d="m 566.4285,-8.736 c 0,-1.632 -0.416,-3.168 -1.184,-4.512 -0.768,-1.344 -1.824,-2.432 -3.168,-3.2 -1.344,-0.768 -2.816,-1.184 -4.448,-1.184 -1.664,0 -3.168,0.416 -4.512,1.184 -1.344,0.768 -2.4,1.856 -3.168,3.2 -0.768,1.344 -1.152,2.848 -1.152,4.512 0,1.664 0.352,3.2 1.056,4.544 0.704,1.344 1.696,2.4 2.944,3.168 1.28,0.8 2.656,1.184 4.192,1.184 h 0.256 7.648 c 0.416,0 0.768,-0.16 1.088,-0.448 0.288,-0.288 0.448,-0.64 0.448,-1.088 V -1.6 Z m -13.76,3.072 c -0.512,-0.896 -0.736,-1.92 -0.736,-3.072 0,-1.12 0.224,-2.144 0.736,-3.072 0.512,-0.896 1.184,-1.632 2.048,-2.144 0.864,-0.512 1.824,-0.8 2.912,-0.8 1.056,0 2.016,0.288 2.88,0.8 0.864,0.512 1.536,1.248 2.048,2.144 0.48,0.928 0.736,1.952 0.736,3.072 0,1.152 -0.256,2.176 -0.736,3.072 -0.512,0.896 -1.184,1.632 -2.048,2.144 -0.864,0.512 -1.824,0.768 -2.88,0.768 -1.088,0 -2.048,-0.256 -2.912,-0.768 -0.864,-0.512 -1.536,-1.248 -2.048,-2.144 z" stroke-width="0" stroke-linejoin="miter" stroke-miterlimit="2" fill="#6b6668" stroke="#6b6668" transform="translate(1.1368683772161603e-13 390.56408) translate(567.8234599999998 47.838719999999995) scale(1.54) translate(-548.7965 17.632)"/>
        <path id="path578609" style="font-style:normal;font-weight:700;font-size:32px;line-height:1;font-family:'Comfortaa Bold Alt1';font-variant-ligatures:none;text-align:center;text-anchor:middle" d="m 571.1255,-24.544 c -0.32,0.32 -0.448,0.704 -0.448,1.152 V -5.92 c 0,1.152 0.192,2.176 0.608,3.072 0.384,0.896 0.96,1.6 1.696,2.112 0.736,0.512 1.568,0.736 2.496,0.736 h 0.064 c 0.64,0 1.152,-0.128 1.568,-0.448 0.384,-0.288 0.608,-0.672 0.608,-1.152 0,-0.448 -0.16,-0.832 -0.416,-1.152 -0.256,-0.288 -0.608,-0.448 -1.024,-0.448 h -0.8 c -0.48,0 -0.864,-0.256 -1.152,-0.768 -0.32,-0.512 -0.448,-1.152 -0.448,-1.952 v -17.472 c 0,-0.448 -0.16,-0.832 -0.448,-1.152 -0.32,-0.288 -0.704,-0.448 -1.152,-0.448 -0.48,0 -0.864,0.16 -1.152,0.448 z" stroke-width="0" stroke-linejoin="miter" stroke-miterlimit="2" fill="#6b6668" stroke="#6b6668" transform="translate(1.1368683772161603e-13 390.56408) translate(601.5201999999998 36.50431999999999) scale(1.54) translate(-570.6775 24.992)"/>
      </g>
      <g id="title" style="font-style:normal;font-weight:700;font-size:72px;line-height:1;font-family:'Comfortaa Bold Alt1';font-variant-ligatures:none;text-align:center;text-anchor:middle" transform="translate(0 0)">
        <path id="path578612" style="font-style:normal;font-weight:700;font-size:72px;line-height:1;font-family:'Comfortaa Bold Alt1';font-variant-ligatures:none;text-align:center;text-anchor:middle" d="m 422.00281,0.72 c 3.888,0 7.632,-0.72 11.232,-2.232 3.456,-1.44 6.48,-3.528 9.144,-6.192 2.664,-2.664 4.752,-5.688 6.192,-9.144 1.512,-3.6 2.304,-7.344 2.304,-11.232 0,-3.888 -0.792,-7.632 -2.304,-11.232 -1.44,-3.456 -3.528,-6.48 -6.192,-9.144 -2.664,-2.664 -5.688,-4.752 -9.144,-6.192 -3.6,-1.512 -7.344,-2.304 -11.232,-2.304 -3.888,0 -7.632,0.792 -11.232,2.304 -3.456,1.44 -6.48,3.528 -9.144,6.192 -2.664,2.664 -4.752,5.688 -6.192,9.144 -1.512,3.6 -2.232,7.344 -2.232,11.232 0,3.888 0.72,7.632 2.232,11.232 1.44,3.456 3.528,6.48 6.192,9.144 2.664,2.664 5.688,4.752 9.144,6.192 3.6,1.512 7.344,2.232 11.232,2.232 z m 0,-50.616 c 6.048,0 11.16,2.16 15.408,6.408 4.248,4.248 6.408,9.36 6.408,15.408 0,6.048 -2.16,11.16 -6.408,15.408 -4.248,4.248 -9.36,6.336 -15.408,6.336 -6.048,0 -11.16,-2.088 -15.408,-6.336 -4.248,-4.248 -6.336,-9.36 -6.336,-15.408 0,-6.048 2.088,-11.16 6.336,-15.408 4.248,-4.248 9.36,-6.408 15.408,-6.408 z" stroke-width="0" stroke-linejoin="miter" stroke-miterlimit="2" fill="#6b6668" stroke="#6b6668" transform="translate(0 282.7052) translate(325.7293924 19.245919999999998) scale(1.54) translate(-393.20281 56.952)"/>
        <path id="path578614" style="font-style:normal;font-weight:700;font-size:72px;line-height:1;font-family:'Comfortaa Bold Alt1';font-variant-ligatures:none;text-align:center;text-anchor:middle" d="m 490.24981,-37.584 c -2.664,-1.44 -5.616,-2.16 -8.928,-2.16 -2.448,0 -4.68,0.432 -6.768,1.296 -2.16,0.864 -3.96,2.016 -5.472,3.528 v -17.64 c 0,-1.08 -0.36,-1.944 -1.008,-2.664 -0.72,-0.648 -1.584,-1.008 -2.664,-1.008 -1.08,0 -1.944,0.36 -2.664,1.008 -0.72,0.72 -1.008,1.584 -1.008,2.664 V -3.6 c 0,1.08 0.288,1.944 1.008,2.664 0.72,0.72 1.584,1.008 2.664,1.008 1.08,0 1.944,-0.288 2.664,-1.008 0.648,-0.72 1.008,-1.584 1.008,-2.664 v -20.304 c 0,-1.728 0.432,-3.24 1.368,-4.68 0.936,-1.368 2.232,-2.448 3.888,-3.312 1.656,-0.792 3.528,-1.224 5.544,-1.224 3.456,0 6.192,1.008 8.28,3.024 2.088,2.016 3.168,4.896 3.168,8.784 V -3.6 c 0,1.08 0.288,1.944 1.008,2.664 0.72,0.72 1.584,1.008 2.664,1.008 1.008,0 1.872,-0.288 2.592,-1.008 0.72,-0.72 1.08,-1.584 1.08,-2.664 v -17.712 c 0,-3.888 -0.792,-7.2 -2.232,-9.936 -1.512,-2.736 -3.6,-4.896 -6.192,-6.336 z" stroke-width="0" stroke-linejoin="miter" stroke-miterlimit="2" fill="#7f7c7a" stroke="#7f7c7a" transform="translate(0 282.7052) translate(431.2732924 20.35472) scale(1.54) translate(-461.73781 56.232)"/>
        <path id="path578616" style="font-style:normal;font-weight:700;font-size:72px;line-height:1;font-family:'Comfortaa Bold Alt1';font-variant-ligatures:none;text-align:center;text-anchor:middle" d="m 587.99431,-55.152 c -0.792,-0.72 -1.656,-1.08 -2.664,-1.008 -1.44,0 -2.52,0.648 -3.312,1.872 0,0.072 0,0.072 0,0.144 -0.072,0 -0.072,0.072 -0.072,0.072 l -18.864,38.808 c -0.36,0.792 -1.008,1.152 -1.944,1.224 -0.864,0 -1.512,-0.432 -1.944,-1.224 l -19.368,-38.88 c 0,0 -0.072,-0.072 -0.072,-0.072 -0.792,-1.296 -1.872,-2.016 -3.24,-2.016 -1.08,0 -1.944,0.36 -2.664,1.08 -0.72,0.72 -1.08,1.656 -1.08,2.664 v 48.744 c 0,1.08 0.36,1.944 1.08,2.664 0.72,0.72 1.584,1.08 2.664,1.08 1.008,0 1.944,-0.36 2.664,-1.08 0.72,-0.72 1.08,-1.584 1.08,-2.664 v -25.92 c 0,-1.152 0.504,-1.8 1.656,-2.088 1.08,-0.288 1.872,0.144 2.448,1.152 l 13.104,26.208 c 0.72,1.512 1.872,2.232 3.456,2.232 1.296,0 2.304,-0.576 3.096,-1.728 0.072,-0.072 0.144,-0.144 0.144,-0.216 l 13.248,-27 c 0.504,-1.08 1.368,-1.44 2.448,-1.152 1.152,0.216 1.728,0.936 1.728,2.088 v 26.424 c 0,1.08 0.36,1.944 1.08,2.664 0.72,0.72 1.584,1.08 2.664,1.08 1.008,0 1.872,-0.36 2.592,-1.08 0.72,-0.72 1.152,-1.584 1.152,-2.664 v -48.744 c 0,-1.008 -0.36,-1.944 -1.08,-2.664 z" stroke-width="0" stroke-linejoin="miter" stroke-miterlimit="2" fill="#93938d" stroke="#93938d" transform="translate(0 282.7052) translate(540.6633424 20.35472) scale(1.54) translate(-532.77031 56.232)"/>
        <path id="path578618" style="font-style:normal;font-weight:700;font-size:72px;line-height:1;font-family:'Comfortaa Bold Alt1';font-variant-ligatures:none;text-align:center;text-anchor:middle" d="m 635.11269,-36.216 c 0,-1.296 -0.792,-2.232 -2.232,-2.808 -0.576,-0.216 -1.152,-0.36 -1.728,-0.36 -1.296,0 -2.232,0.72 -2.808,2.088 l -11.592,26.136 -13.176,-26.208 c -0.72,-1.296 -1.728,-2.016 -3.024,-2.016 -0.576,0 -1.008,0.144 -1.44,0.288 -0.648,0.288 -1.152,0.72 -1.512,1.224 -0.432,0.576 -0.576,1.152 -0.576,1.728 0,0.576 0.072,1.08 0.36,1.512 l 16.2,30.744 -7.2,16.2 c -0.288,0.576 -0.432,1.152 -0.432,1.728 0,1.296 0.72,2.232 2.16,2.808 0.648,0.288 1.224,0.432 1.728,0.432 1.296,0 2.232,-0.72 2.808,-2.232 l 22.032,-49.536 c 0.288,-0.648 0.432,-1.224 0.432,-1.728 z" stroke-width="0" stroke-linejoin="miter" stroke-miterlimit="2" fill="#a7a99f" stroke="#a7a99f" transform="translate(0 282.7052) translate(639.6150876 46.300639999999994) scale(1.54) translate(-597.02469 39.384)"/>
      </g>
      <image xlink:href="" id="icon" style="display: none;" x="0" y="0"/>
    </g>
  </g>
</svg>